<?xml version="1.0" encoding="utf-8"?>
<!-- Generator: Adobe Illustrator 22.0.1, SVG Export Plug-In . SVG Version: 6.00 Build 0)  -->
<svg version="1.1" id="Layer_1" xmlns="http://www.w3.org/2000/svg" xmlns:xlink="http://www.w3.org/1999/xlink" x="0px" y="0px"
	 viewBox="0 0 1110 450" style="enable-background:new 0 0 1110 450;" xml:space="preserve">
<style type="text/css">
	.st0{fill:#3F4D4B;}
</style>
<g>
	<path class="st0" d="M204,316.8c-7.9,9.4-18.1,17-30.7,22.8c-12.6,5.8-27.2,8.6-43.9,8.6s-32.8-3.4-48.5-10.2
		c-15.7-6.8-29.5-16.1-41.5-27.9c-12-11.8-21.6-25.6-28.7-41.4C3.6,253,0,236.1,0,218.1c0-18,3.6-34.9,10.7-50.6
		c7.2-15.8,16.7-29.6,28.7-41.4c12-11.8,25.8-21.1,41.5-27.9c15.6-6.8,31.8-10.2,48.5-10.2c7.9,0,15.6,1,23,2.9
		c7.5,1.9,14.5,4.5,21.1,7.7c6.6,3.2,12.6,6.9,18.2,11.1c5.6,4.1,10.2,8.4,14,12.8c2-9.4,4.9-16.6,8.6-21.4c3.7-4.9,10-7.3,19.1-7.3
		c5.8,0,10.9,2,15.1,6c4.2,4,6.4,9.4,6.4,16.1v308.8c0,7.7-2.4,13.8-7.2,18.4c-4.8,4.6-10.9,6.9-18.2,6.9c-7.9,0-14.1-2.3-18.6-6.9
		c-4.5-4.6-6.8-10.7-6.8-18.4V316.8z M129.4,297.3c10.5,0,20.3-2.1,29.4-6.2c9.1-4.1,17-9.8,23.7-17c6.7-7.2,12-15.6,15.8-25.2
		c3.8-9.6,5.7-19.8,5.7-30.7c0-10.9-1.9-21.2-5.7-30.7c-3.8-9.6-9.1-18-15.8-25.2c-6.7-7.2-14.6-12.9-23.7-17
		c-9.1-4.1-18.9-6.2-29.4-6.2c-11.1,0-21.4,2.1-30.9,6.2c-9.5,4.1-17.8,9.8-24.8,17c-7,7.2-12.6,15.6-16.7,25.2
		c-4.1,9.6-6.1,19.8-6.1,30.7c0,10.9,2,21.2,6.1,30.7c4.1,9.6,9.7,18,16.7,25.2c7,7.2,15.3,12.9,24.8,17
		C108,295.3,118.3,297.3,129.4,297.3z"/>
	<path class="st0" d="M417.7,88.1c17.8,0,34.6,3.5,50.2,10.4c15.6,6.9,29.3,16.3,41,28.1c11.7,11.8,20.9,25.6,27.6,41.4
		c6.7,15.8,10.1,32.7,10.1,50.6c0,18-3.4,34.9-10.1,50.6c-6.7,15.8-15.9,29.5-27.6,41.1c-11.7,11.6-25.4,20.9-41,27.6
		c-15.6,6.8-32.4,10.2-50.2,10.2c-17.8,0-34.6-3.4-50.2-10.2c-15.6-6.8-29.3-16-41-27.6c-11.7-11.6-20.9-25.4-27.6-41.1
		c-6.7-15.8-10.1-32.6-10.1-50.6c0-18,3.4-34.9,10.1-50.6c6.7-15.8,15.9-29.6,27.6-41.4c11.7-11.8,25.4-21.2,41-28.1
		C383.1,91.6,399.8,88.1,417.7,88.1z M417.7,139c-11.1,0-21.4,2.1-30.9,6.2c-9.5,4.1-17.8,9.8-24.8,17c-7,7.2-12.6,15.7-16.7,25.4
		c-4.1,9.7-6.1,20.1-6.1,31c0,10.9,2,21.2,6.1,30.7c4.1,9.6,9.7,17.9,16.7,25c7,7.1,15.3,12.7,24.8,16.8c9.5,4.1,19.8,6.2,30.9,6.2
		c10.8,0,21-2.1,30.5-6.2c9.5-4.1,17.8-9.7,25-16.8c7.2-7.1,12.8-15.4,16.9-25c4.1-9.6,6.1-19.8,6.1-30.7c0-10.9-2-21.2-6.1-31
		c-4.1-9.7-9.7-18.2-16.9-25.4c-7.2-7.2-15.5-12.9-25-17C438.7,141,428.5,139,417.7,139z"/>
	<path class="st0" d="M701.1,88.1c17.8,0,34.6,3.5,50.2,10.4c15.6,6.9,29.3,16.3,41,28.1c11.7,11.8,20.9,25.6,27.6,41.4
		c6.7,15.8,10.1,32.7,10.1,50.6c0,18-3.4,34.9-10.1,50.6c-6.7,15.8-15.9,29.5-27.6,41.1c-11.7,11.6-25.4,20.9-41,27.6
		c-15.6,6.8-32.4,10.2-50.2,10.2c-17.8,0-34.6-3.4-50.2-10.2c-15.6-6.8-29.3-16-41-27.6c-11.7-11.6-20.9-25.4-27.6-41.1
		c-6.7-15.8-10.1-32.6-10.1-50.6c0-18,3.4-34.9,10.1-50.6c6.7-15.8,15.9-29.6,27.6-41.4c11.7-11.8,25.4-21.2,41-28.1
		C666.5,91.6,683.3,88.1,701.1,88.1z M701.1,139c-11.1,0-21.4,2.1-30.9,6.2c-9.5,4.1-17.8,9.8-24.8,17c-7,7.2-12.6,15.7-16.7,25.4
		c-4.1,9.7-6.1,20.1-6.1,31c0,10.9,2,21.2,6.1,30.7c4.1,9.6,9.7,17.9,16.7,25c7,7.1,15.3,12.7,24.8,16.8c9.5,4.1,19.8,6.2,30.9,6.2
		c10.8,0,21-2.1,30.5-6.2c9.5-4.1,17.8-9.7,25-16.8c7.2-7.1,12.8-15.4,16.9-25c4.1-9.6,6.1-19.8,6.1-30.7c0-10.9-2-21.2-6.1-31
		c-4.1-9.7-9.7-18.2-16.9-25.4c-7.2-7.2-15.5-12.9-25-17C722.1,141,711.9,139,701.1,139z"/>
	<path class="st0" d="M1059.1,25.2c0-7.7,2.3-13.8,6.8-18.3c4.5-4.6,10.7-6.9,18.6-6.9c7.6,0,13.7,2.3,18.4,6.9
		c4.7,4.6,7,10.7,7,18.3v295.1c0,6.8-2,12.2-5.9,16.4c-3.9,4.1-9,6.2-15.1,6.2c-7.3,0-13.5-2.2-18.6-6.6c-5.1-4.4-8.3-11.8-9.4-22.1
		c-3.8,4.4-8.5,8.7-14,12.8c-5.6,4.1-11.7,7.7-18.4,10.8c-6.7,3.1-13.8,5.6-21.3,7.5c-7.5,1.9-15,2.9-22.6,2.9
		c-16.7,0-32.8-3.4-48.5-10.2c-15.7-6.8-29.4-16-41.2-27.6c-11.8-11.6-21.4-25.4-28.5-41.1c-7.2-15.8-10.7-32.6-10.7-50.6
		c0-18,3.6-34.9,10.7-50.6c7.2-15.8,16.7-29.6,28.5-41.4c11.8-11.8,25.6-21.2,41.2-28.1c15.6-6.9,31.8-10.4,48.5-10.4
		s31.3,2.9,43.9,8.6c12.6,5.7,22.8,13.5,30.7,23.2V25.2z M984.5,139c-11.1,0-21.4,2.1-30.9,6.2c-9.5,4.1-17.8,9.8-24.8,17
		c-7,7.2-12.6,15.7-16.7,25.4c-4.1,9.7-6.1,20.1-6.1,31c0,10.9,2,21.2,6.1,30.7c4.1,9.6,9.7,17.9,16.7,25c7,7.1,15.3,12.7,24.8,16.8
		c9.5,4.1,19.8,6.2,30.9,6.2c10.5,0,20.4-2.1,29.6-6.2c9.2-4.1,17.1-9.7,23.7-16.8c6.6-7.1,11.8-15.4,15.6-25
		c3.8-9.6,5.7-19.8,5.7-30.7c0-10.9-1.9-21.2-5.7-31c-3.8-9.7-9-18.2-15.6-25.4c-6.6-7.2-14.5-12.9-23.7-17
		C1004.9,141,995.1,139,984.5,139z"/>
</g>
</svg>
